Coordinates
version=1
nRows=12
nColumns=28
inDegrees=yes

Units are S.I. units (second, meters, Newtons, ...)
Angles are in degrees.

endheader
time	pelvis_tilt	pelvis_list	pelvis_rotation	pelvis_tx	pelvis_ty	pelvis_tz	hip_flexion_r	hip_adduction_r	hip_rotation_r	knee_angle_r	ankle_angle_r	subtalar_angle_r	mtp_angle_r	hip_flexion_l	hip_adduction_l	hip_rotation_l	knee_angle_l	socket_flexion	socket_adduction	socket_rotation	socket_tx	socket_ty	socket_tz	foot_flex	lumbar_extension	lumbar_bending	lumbar_rotation
      0.54583333	      0.84356316	     -4.71018338	     11.04577510	     -0.03574994	      0.96477595	      0.21203149	     23.87794940	      5.08350785	     -6.71121580	    -10.07663953	      6.28474845	    -18.33204367	     -3.16346782	    -22.58877541	     -7.85504922	     24.96431320	      1.11036924	      9.68516874	      0.00000000	      0.00000000	      0.00000000	      0.00133666	      0.00000000	      9.75876500	     -8.53302192	      5.98548497	    -18.92333774
      0.55000000	      0.63360547	     -4.57628277	     10.96325182	     -0.03581734	      0.96445395	      0.21213222	     24.28698637	      4.84865389	     -7.04133519	    -10.42831850	      5.82751406	    -18.49982477	     -0.00076525	    -22.30749529	     -7.60738821	     24.87476412	      0.83737635	      9.53854242	      0.00000000	      0.00000000	      0.00000000	      0.00132833	      0.00000000	      9.76293358	     -8.32640185	      5.77375739	    -18.90354316
      0.55416667	      0.73111792	     -4.61261307	     10.96669174	     -0.02939495	      0.96330185	      0.21158495	     24.52857527	      4.93257426	     -7.03806372	    -11.46147249	      5.38215423	    -18.52027008	      0.01517001	    -22.57587167	     -7.58411104	     24.81260061	      0.47227824	      9.65828449	      0.00000000	      0.00000000	      0.00000000	      0.00137087	      0.00000000	      9.77785238	     -8.37130318	      5.97214678	    -18.97373290
      0.55833333	      0.81572632	     -4.64669610	     10.96796709	     -0.02290793	      0.96215485	      0.21104065	     24.76005252	      5.01940802	     -6.95255874	    -12.49045798	      4.93669543	    -18.50987505	      0.06655295	    -22.81177975	     -7.54998098	     24.78532842	      0.07150383	      9.77413164	      0.00000000	      0.00000000	      0.00000000	      0.00137258	      0.00000000	      9.76940929	     -8.39723563	      6.15947619	    -19.00467218
      0.56250000	      0.47658376	     -4.48141039	     10.73675677	     -0.01672918	      0.96042440	      0.21086713	     25.63554563	      4.86619154	     -6.70712301	    -13.88812585	      4.27086725	    -18.68150434	      1.43815064	    -22.47290673	     -7.08199362	     24.66318274	     -0.77984696	      9.71396617	      0.00000000	      0.00000000	      0.00000000	      0.00134605	      0.00000000	      9.74024277	     -8.03966812	      5.99258405	    -18.77327967
      0.56666667	      0.58216245	     -4.56341868	     10.82111984	     -0.01014862	      0.95942408	      0.21014025	     25.71605948	      4.99390162	     -6.51099367	    -14.69435667	      3.94190766	    -18.60654388	      1.46105004	    -22.68423076	     -7.12092271	     24.74112342	     -1.14413829	      9.94275602	      0.00000000	      0.00000000	      0.00000000	      0.00134317	      0.00000000	      9.66806780	     -8.05920942	      6.25999550	    -18.78896206
      0.57083333	      0.47440420	     -4.36312473	     10.46999899	     -0.00386117	      0.95803208	      0.21016008	     26.39117297	      4.86755122	     -6.37969279	    -16.21922649	      3.14530146	    -18.62130809	      2.51922518	    -22.61289442	     -6.60576713	     24.39215149	     -2.01676771	      9.86691499	      0.00000000	      0.00000000	      0.00000000	      0.00144480	      0.00000000	      9.55536277	     -7.97461771	      6.08595316	    -18.52608763
      0.57500000	      0.59430946	     -4.47407278	     10.47670639	      0.00273568	      0.95706510	      0.20957261	     26.50955195	      5.03911078	     -6.22723519	    -17.12632012	      2.75711722	    -18.52839187	      2.57472557	    -22.79676450	     -6.63007440	     24.39925876	     -2.47552205	     10.08071144	      0.00000000	      0.00000000	      0.00000000	      0.00134079	      0.00000000	      9.39643835	     -8.01717199	      6.38464589	    -18.54972291
      0.57916667	      0.71210434	     -4.47508864	     10.27571135	      0.00944329	      0.95608546	      0.20926065	     26.76912780	      5.10084485	     -6.25091485	    -18.33763458	      2.10617910	    -18.40627780	      2.75836573	    -22.96794031	     -6.42381586	     23.98616241	     -3.18045235	     10.13807734	      0.00000000	      0.00000000	      0.00000000	      0.00140959	      0.00000000	      9.18195404	     -8.07006216	      6.53764145	    -18.53944733
      0.58333333	      0.41007064	     -4.18990279	      9.94023369	      0.01569971	      0.95462638	      0.20921229	     27.55269966	      4.87438597	     -5.81354927	    -19.74521434	      1.62678070	    -18.16589865	      4.15168402	    -22.52153820	     -5.74384297	     23.77173044	     -4.32358562	     10.06175081	      0.00000000	      0.00000000	      0.00000000	      0.00153851	      0.00000000	      8.96279752	     -7.78153352	      6.22197605	    -17.99417988
      0.58750000	      0.52759640	     -4.27733018	      9.83726681	      0.02254710	      0.95375355	      0.20868103	     27.71811623	      4.99015841	     -5.81668052	    -20.80704510	      1.15203924	    -18.02044841	      4.44364895	    -22.62659872	     -5.65241840	     23.42569969	     -5.04444707	     10.16897012	      0.00000000	      0.00000000	      0.00000000	      0.00148717	      0.00000000	      8.69489315	     -7.79312817	      6.48582594	    -18.02064694
      0.59166667	      0.31367135	     -4.13127787	      9.58271778	      0.02905877	      0.95249511	      0.20848223	     28.34623853	      4.84559938	     -5.68805151	    -22.10511221	      0.84976504	    -17.60944586	      6.21174493	    -22.24151958	     -5.17044082	     23.20774925	     -6.10433774	     10.21420900	      0.00000000	      0.00000000	      0.00000000	      0.00159499	      0.00000000	      8.40227912	     -7.54955334	      6.37614740	    -17.66186214
